<svg width="73" height="73" viewBox="0 0 73 73" fill="none" xmlns="http://www.w3.org/2000/svg">
<path d="M57.0313 55.5104V25.0937H26.6146V23.1927C26.6146 20.0476 29.1726 17.4896 32.3177 17.4896H38.0208V6.08333H32.3177C27.7817 6.08896 23.4332 7.89336 20.2258 11.1008C17.0184 14.3082 15.214 18.6567 15.2083 23.1927V25.0937H7.60417V36.5H15.2083V55.5104H7.60417V66.9167H34.2188V55.5104H26.6146V36.5H45.7315V55.5104H38.0208V66.9167H64.6354V55.5104H57.0313Z" fill="#0FA958"/>
<path d="M51.3281 17.4896C54.4779 17.4896 57.0312 14.9362 57.0312 11.7865C57.0312 8.6367 54.4779 6.08333 51.3281 6.08333C48.1784 6.08333 45.625 8.6367 45.625 11.7865C45.625 14.9362 48.1784 17.4896 51.3281 17.4896Z" fill="#0FA958"/>
</svg>
