<svg width="231" height="225" viewBox="0 0 231 225" fill="none" xmlns="http://www.w3.org/2000/svg">
<g clip-path="url(#clip0_50_46)">
<path d="M147.335 50.4369H135.044V155.18C135.044 156.823 134.721 158.45 134.091 159.969C133.462 161.487 132.54 162.867 131.378 164.029C130.215 165.191 128.835 166.112 127.316 166.741C125.797 167.37 124.169 167.694 122.525 167.694H28.5555V167.814C28.5555 169.457 28.8793 171.084 29.5085 172.603C30.1376 174.121 31.0598 175.501 32.2223 176.663C33.3849 177.825 34.765 178.746 36.284 179.375C37.8029 180.004 39.4309 180.328 41.075 180.328H147.335C148.979 180.328 150.607 180.004 152.126 179.375C153.645 178.746 155.025 177.825 156.188 176.663C157.351 175.501 158.273 174.121 158.902 172.603C159.531 171.084 159.855 169.457 159.855 167.814V62.951C159.855 59.6321 158.536 56.4491 156.188 54.1022C153.84 51.7553 150.656 50.4369 147.335 50.4369Z" fill="#F2F2F2"/>
<path d="M205.6 216.89C205.818 216.9 206.033 216.842 206.217 216.726C206.401 216.609 206.545 216.439 206.629 216.238C206.713 216.038 206.733 215.816 206.687 215.603C206.641 215.39 206.53 215.197 206.37 215.049L206.297 214.76C206.307 214.737 206.317 214.713 206.326 214.69C206.545 214.173 206.913 213.732 207.382 213.422C207.851 213.112 208.402 212.948 208.964 212.95C209.526 212.953 210.075 213.121 210.542 213.434C211.009 213.747 211.373 214.191 211.589 214.71C212.449 216.782 213.545 218.857 213.815 221.048C213.934 222.017 213.884 222.998 213.667 223.95C215.688 219.542 216.738 214.751 216.745 209.902C216.745 208.685 216.678 207.47 216.542 206.26C216.43 205.269 216.275 204.285 216.077 203.308C214.993 198.006 212.667 193.036 209.289 188.807C207.654 187.915 206.332 186.544 205.5 184.878C205.199 184.279 204.986 183.64 204.868 182.98C205.053 183.004 205.564 180.197 205.425 180.024C205.682 179.634 206.142 179.441 206.422 179.06C207.818 177.168 209.742 177.499 210.746 180.07C212.891 181.152 212.912 182.946 211.596 184.672C210.758 185.771 210.643 187.257 209.909 188.432C209.984 188.529 210.063 188.623 210.138 188.719C211.52 190.495 212.724 192.402 213.734 194.413C213.488 192.161 213.781 189.882 214.589 187.764C215.407 185.791 216.941 184.129 218.292 182.423C218.649 181.965 219.134 181.623 219.686 181.44C220.238 181.257 220.831 181.242 221.392 181.396C221.952 181.551 222.454 181.868 222.834 182.307C223.214 182.747 223.456 183.289 223.527 183.866C223.53 183.891 223.533 183.916 223.536 183.941C223.335 184.054 223.139 184.174 222.946 184.301C222.705 184.463 222.518 184.693 222.41 184.962C222.302 185.232 222.277 185.527 222.34 185.811C222.403 186.094 222.55 186.352 222.762 186.55C222.974 186.749 223.24 186.878 223.527 186.923L223.557 186.927C223.485 187.65 223.359 188.366 223.179 189.07C224.912 195.769 221.17 198.208 215.829 198.318C215.711 198.378 215.596 198.439 215.478 198.496C216.492 201.37 217.128 204.363 217.371 207.4C217.508 209.192 217.5 210.992 217.346 212.782L217.355 212.719C217.743 210.728 218.805 208.931 220.364 207.633C222.679 205.732 225.95 205.032 228.448 203.503C228.713 203.333 229.022 203.242 229.337 203.241C229.653 203.241 229.962 203.33 230.228 203.499C230.494 203.668 230.706 203.91 230.84 204.196C230.973 204.481 231.022 204.799 230.981 205.112L230.97 205.178C230.598 205.33 230.236 205.505 229.885 205.701C229.684 205.814 229.488 205.935 229.296 206.062C229.054 206.223 228.867 206.453 228.759 206.722C228.651 206.992 228.627 207.287 228.689 207.571C228.752 207.854 228.899 208.112 229.111 208.31C229.323 208.509 229.59 208.639 229.877 208.683L229.906 208.687C229.927 208.69 229.945 208.693 229.967 208.696C229.33 210.215 228.438 211.612 227.327 212.828C226.244 218.675 221.59 219.23 216.612 217.527H216.609C216.062 219.9 215.271 222.209 214.247 224.418H205.812C205.781 224.324 205.754 224.228 205.727 224.134C206.508 224.183 207.292 224.136 208.061 223.995C207.435 223.227 206.809 222.454 206.184 221.686C206.17 221.672 206.156 221.657 206.144 221.641C205.827 221.248 205.506 220.858 205.189 220.465L205.189 220.465C205.172 219.26 205.31 218.059 205.6 216.89Z" fill="#F2F2F2"/>
<path d="M112.688 36.1889C112.996 36.6553 113.402 37.0493 113.877 37.3436C114.353 37.6379 114.886 37.8255 115.441 37.8934C115.996 37.9613 116.559 37.9079 117.091 37.7369C117.624 37.5658 118.112 37.2813 118.524 36.9029L136.062 44.8121L139.443 40.5009L118.544 31.2593C117.856 30.6145 116.954 30.2445 116.011 30.2196C115.067 30.1947 114.148 30.5166 113.426 31.1242C112.704 31.7319 112.23 32.5831 112.094 33.5165C111.958 34.45 112.17 35.4008 112.688 36.1889Z" fill="#A0616A"/>
<path d="M187.955 41.1207L189.694 50.9735C189.775 51.4331 189.759 51.9047 189.648 52.3578C189.536 52.811 189.33 53.2357 189.044 53.6048C188.758 53.9739 188.398 54.2791 187.988 54.5009C187.577 54.7227 187.124 54.8562 186.658 54.8928L157.102 57.2161L122.359 41.6738L126.509 33.8L156.669 43.3466L187.955 41.1207Z" fill="#0FA958"/>
<path d="M118.78 34.0596H12.5195C5.60517 34.0596 0 39.6624 0 46.5737V151.436C0 158.348 5.60517 163.951 12.5195 163.951H118.78C125.694 163.951 131.299 158.348 131.299 151.436V46.5737C131.299 39.6624 125.694 34.0596 118.78 34.0596Z" fill="#F2F2F2"/>
<path d="M12.5196 36.6331C11.2136 36.6331 9.92039 36.8902 8.71382 37.3898C7.50726 37.8893 6.41095 38.6216 5.48748 39.5446C4.56402 40.4677 3.83148 41.5635 3.33171 42.7696C2.83193 43.9756 2.57471 45.2683 2.57471 46.5737V151.436C2.57471 154.073 3.62246 156.601 5.48748 158.466C7.3525 160.33 9.88202 161.377 12.5196 161.377H80.3375C86.6918 161.377 92.9839 160.126 98.8545 157.695C104.725 155.265 110.059 151.702 114.552 147.211C119.046 142.72 122.61 137.388 125.041 131.52C127.473 125.651 128.725 119.362 128.725 113.011V46.5737C128.725 45.2683 128.467 43.9756 127.968 42.7696C127.468 41.5635 126.735 40.4677 125.812 39.5446C124.888 38.6216 123.792 37.8893 122.586 37.3898C121.379 36.8902 120.086 36.6331 118.78 36.6331H12.5196Z" fill="white"/>
<path d="M95.3544 68.4571H35.7127C35.1654 68.4571 34.6405 68.2398 34.2536 67.853C33.8666 67.4662 33.6492 66.9416 33.6492 66.3945C33.6492 65.8475 33.8666 65.3228 34.2536 64.936C34.6405 64.5492 35.1654 64.3319 35.7127 64.3319H95.3544C95.9017 64.3319 96.4265 64.5492 96.8135 64.936C97.2005 65.3228 97.4179 65.8475 97.4179 66.3945C97.4179 66.9416 97.2005 67.4662 96.8135 67.853C96.4265 68.2398 95.9017 68.4571 95.3544 68.4571Z" fill="#F2F2F2"/>
<path d="M95.3544 112.442H35.7127C35.1654 112.442 34.6405 112.225 34.2536 111.838C33.8666 111.451 33.6492 110.926 33.6492 110.379C33.6492 109.832 33.8666 109.308 34.2536 108.921C34.6405 108.534 35.1654 108.317 35.7127 108.317H95.3544C95.9017 108.317 96.4265 108.534 96.8135 108.921C97.2005 109.308 97.4179 109.832 97.4179 110.379C97.4179 110.926 97.2005 111.451 96.8135 111.838C96.4265 112.225 95.9017 112.442 95.3544 112.442Z" fill="#F2F2F2"/>
<path d="M119.574 90.464H11.4934C10.9461 90.464 10.4213 90.2466 10.0343 89.8598C9.64733 89.473 9.42993 88.9484 9.42993 88.4013C9.42993 87.8543 9.64733 87.3297 10.0343 86.9428C10.4213 86.556 10.9461 86.3387 11.4934 86.3387H119.574C120.121 86.3387 120.646 86.556 121.033 86.9428C121.42 87.3297 121.637 87.8543 121.637 88.4013C121.637 88.9484 121.42 89.473 121.033 89.8598C120.646 90.2466 120.121 90.464 119.574 90.464Z" fill="#F2F2F2"/>
<path d="M184.221 84.5476L173.454 107.476L214.872 103.283L206.226 81.2722L184.221 84.5476Z" fill="#A0616A"/>
<path d="M193.85 216.33L189.923 216.297L188.185 200.804L193.98 200.853L193.85 216.33Z" fill="#A0616A"/>
<path d="M181.271 222.572C181.268 223.037 181.449 223.485 181.775 223.817C182.102 224.149 182.546 224.338 183.012 224.342L190.82 224.407L192.186 221.638L192.688 224.421L195.634 224.448L194.89 214.52L193.865 214.452L189.685 214.164L188.336 214.074L188.312 216.883L182.041 221.135C181.806 221.294 181.613 221.508 181.479 221.759C181.345 222.009 181.274 222.288 181.271 222.572Z" fill="#2F2E41"/>
<path d="M150.392 216.348L146.648 215.163L149.54 199.843L155.066 201.592L150.392 216.348Z" fill="#A0616A"/>
<path d="M136.534 218.62C136.394 219.064 136.435 219.545 136.65 219.958C136.864 220.371 137.234 220.682 137.677 220.823L145.121 223.179L147.242 220.933L146.903 223.741L149.711 224.632L151.918 214.924L150.959 214.558L147.047 213.054L145.785 212.572L144.936 215.25L137.691 217.473C137.42 217.556 137.173 217.704 136.971 217.904C136.77 218.104 136.619 218.349 136.534 218.62Z" fill="#2F2E41"/>
<path d="M212.985 96.835L175.326 103.733C175.326 103.733 169.286 108.249 170.902 109.866C172.518 111.484 172.768 111.233 171.707 112.294C170.645 113.356 168.35 114.774 168.327 115.703C168.305 116.631 151.452 158.276 151.452 158.276C151.452 158.276 153.325 157.34 151.92 158.744C150.516 160.148 150.516 161.308 150.516 161.308L143.962 205.536L154.606 206.163L165.028 165.84L188.274 128.171C188.274 128.171 190.581 161.762 190.678 163.997C190.774 166.231 192.179 163.423 190.774 166.231C189.37 169.038 188.434 167.167 189.37 169.038C190.306 170.91 185.997 209.015 185.997 209.015H195.712L216.548 130.034C216.548 130.034 223.962 107.454 212.985 96.835Z" fill="#2F2E41"/>
<path d="M201.891 33.6598L186.806 32.0931L182.898 37.165L178.345 39.589C176.418 40.6148 174.828 42.1736 173.764 44.079C172.7 45.9845 172.208 48.1559 172.346 50.3336L177.667 81.2722C177.667 81.2722 173.172 91.3883 176.263 93.9061C179.353 96.424 173.873 102.66 180.476 99.5212C187.078 96.3828 215.585 99.9891 215.585 99.9891L209.499 82.676L214.045 65.6634L214.546 51.3987C214.639 48.7331 213.848 46.1114 212.295 43.9424C210.742 41.7734 208.515 40.1788 205.961 39.4073L205.325 39.2153L201.891 33.6598Z" fill="#0FA958"/>
<path d="M222.659 22.1001C222.758 26.3502 221.169 30.4656 218.886 34.0803C218.208 31.9701 216.989 30.0495 215.717 28.2187C216.358 32.1793 215.675 36.2407 213.774 39.7743C213.707 39.8222 213.638 39.8667 213.567 39.9076C211.706 41.0264 209.347 41.4796 207.334 40.6715C211.493 36.1904 212.022 28.7658 208.535 23.7394C207.548 22.3132 206.271 21.0518 205.66 19.4287C204.695 16.839 205.623 13.9876 206.208 11.2876C206.755 8.77463 206.851 5.7842 205.165 3.94253C205.345 3.68517 205.59 3.4803 205.876 3.34893C206.161 3.21756 206.476 3.16441 206.789 3.19492C207.829 3.34175 208.586 4.24524 209.068 5.17579C209.55 6.1063 209.868 7.13763 210.54 7.94137C211.784 9.44574 213.903 9.80141 215.689 10.5943C220.013 12.5196 222.556 17.3708 222.659 22.1001Z" fill="#2F2E41"/>
<path d="M111.25 224.443C111.249 224.516 111.264 224.589 111.292 224.657C111.319 224.724 111.361 224.786 111.412 224.837C111.464 224.889 111.526 224.93 111.593 224.958C111.661 224.986 111.734 225 111.807 225H230.377C230.525 225 230.667 224.941 230.771 224.837C230.876 224.732 230.934 224.591 230.934 224.443C230.934 224.296 230.876 224.154 230.771 224.049C230.667 223.945 230.525 223.886 230.377 223.886H111.807C111.734 223.886 111.661 223.9 111.593 223.928C111.526 223.956 111.464 223.997 111.412 224.049C111.361 224.101 111.32 224.162 111.292 224.23C111.264 224.297 111.249 224.37 111.25 224.443Z" fill="#CCCCCC"/>
<path d="M223.593 120.606C225.92 120.606 227.806 118.721 227.806 116.395C227.806 114.069 225.92 112.184 223.593 112.184C221.266 112.184 219.38 114.069 219.38 116.395C219.38 118.721 221.266 120.606 223.593 120.606Z" fill="#0FA958"/>
<path d="M186.259 19.67C186.506 18.8055 184.803 24.0902 185.625 24.1856C189.368 24.6149 194.507 26.8496 197.114 27.8921C197.232 27.8785 197.349 27.8648 197.463 27.8478C197.743 27.8171 198.016 27.7728 198.285 27.7218C204.356 26.5736 206.691 17.2519 206.691 17.1668C206.691 16.7477 205.684 5.23799 204.099 5.06767C203.683 5.02251 203.265 4.99977 202.846 4.99952H198.912C198.099 4.82421 197.274 4.70469 196.443 4.64179H196.436C188.518 4.03875 182.274 8.86304 182.858 14.7333C182.861 14.7401 182.868 14.7469 182.872 14.7538C183.041 15.0059 183.19 15.2444 183.321 15.4726C183.449 15.6873 183.556 15.8917 183.649 16.0859C184.371 17.585 182.515 19.4713 183.745 19.8234C185.382 20.2916 179.442 35.6829 185.918 35.6829C182.768 36.5782 185.578 22.0549 186.259 19.67Z" fill="#2F2E41"/>
<path d="M193.328 28.701C198.471 28.701 202.641 24.5334 202.641 19.3923C202.641 14.2513 198.471 10.0837 193.328 10.0837C188.185 10.0837 184.015 14.2513 184.015 19.3923C184.015 24.5334 188.185 28.701 193.328 28.701Z" fill="#A0616A"/>
<path d="M182.858 15.2409C183.013 15.3227 183.165 15.3976 183.321 15.4726C183.483 15.551 183.645 15.6293 183.808 15.7009C186.926 17.1148 189.464 17.2715 191.004 15.2409C191.046 14.1725 191.286 13.1211 191.712 12.1405C191.637 13.2363 191.926 14.3262 192.534 15.2409H195.635C198.83 17.3601 200.47 17.5815 198.253 24.5386C197.635 26.4772 195.177 37.7578 196.144 39.4306C196.424 39.3999 199.399 27.0442 199.669 26.9931C205.74 25.845 209.597 15.8474 209.103 15.2818C209.106 13.6735 208.736 12.0865 208.022 10.6449C207.12 8.81849 205.713 7.28863 203.968 6.23624C202.928 5.73215 201.844 5.32499 200.729 5.01993C200.701 5.01311 200.677 5.00629 200.649 4.99949C200.308 4.90749 199.959 4.82232 199.61 4.75077C198.889 4.59869 198.161 4.48835 197.428 4.4203C197.376 4.41689 197.324 4.41348 197.276 4.41348C196.983 4.41416 196.695 4.49297 196.443 4.64176C196.44 4.64176 196.44 4.64515 196.436 4.64515C196.256 4.75039 196.099 4.89055 195.974 5.05739C195.753 5.33812 195.634 5.68507 195.635 6.04202H192.182C192.054 6.04202 191.926 6.04542 191.799 6.05223C189.494 6.13096 187.301 7.06656 185.65 8.67593C183.999 10.2853 183.008 12.4526 182.872 14.7537C182.861 14.9173 182.858 15.0774 182.858 15.2409Z" fill="#2F2E41"/>
<path d="M203.22 12.2652C206.608 12.2652 209.355 9.51954 209.355 6.1326C209.355 2.74566 206.608 0 203.22 0C199.831 0 197.084 2.74566 197.084 6.1326C197.084 9.51954 199.831 12.2652 203.22 12.2652Z" fill="#2F2E41"/>
<path d="M223.64 118.131C223.94 117.659 224.133 117.128 224.207 116.574C224.281 116.02 224.233 115.457 224.068 114.923C223.902 114.389 223.623 113.898 223.249 113.482C222.874 113.067 222.414 112.738 221.9 112.518L221.931 93.2858L216.611 91.9695L216.742 114.812C216.436 115.704 216.468 116.678 216.831 117.548C217.195 118.419 217.866 119.125 218.716 119.535C219.567 119.944 220.537 120.027 221.445 119.768C222.353 119.51 223.134 118.927 223.64 118.131Z" fill="#A0616A"/>
<path d="M197.296 47.4835L205.575 41.8598C205.961 41.5975 206.398 41.4187 206.857 41.3351C207.317 41.2514 207.788 41.2648 208.242 41.3742C208.696 41.4836 209.122 41.6866 209.493 41.9703C209.864 42.2541 210.171 42.6121 210.395 43.0216L224.628 69.0188L224.682 107.066L215.797 106.509L212.149 75.0977L197.296 47.4835Z" fill="#0FA958"/>
<path d="M133.717 133.769H45.2419C43.3175 133.769 41.472 134.533 40.1112 135.893C38.7505 137.253 37.986 139.098 37.986 141.022C37.986 142.945 38.7505 144.79 40.1112 146.15C41.472 147.51 43.3175 148.274 45.2419 148.274H133.717C135.641 148.274 137.487 147.51 138.848 146.15C140.208 144.79 140.973 142.945 140.973 141.022C140.973 139.098 140.208 137.253 138.848 135.893C137.487 134.533 135.641 133.769 133.717 133.769Z" fill="white"/>
<path d="M133.717 148.742H45.2419C43.1934 148.742 41.2287 147.929 39.7802 146.481C38.3317 145.033 37.5179 143.069 37.5179 141.022C37.5179 138.974 38.3317 137.01 39.7802 135.562C41.2287 134.114 43.1934 133.301 45.2419 133.301H133.717C135.765 133.301 137.73 134.114 139.179 135.562C140.627 137.01 141.441 138.974 141.441 141.022C141.441 143.069 140.627 145.033 139.179 146.481C137.73 147.929 135.765 148.742 133.717 148.742ZM45.2419 134.237C43.4417 134.237 41.7152 134.951 40.4422 136.224C39.1693 137.496 38.4541 139.222 38.4541 141.022C38.4541 142.821 39.1693 144.547 40.4422 145.819C41.7152 147.092 43.4417 147.806 45.2419 147.806H133.717C135.517 147.806 137.244 147.092 138.517 145.819C139.79 144.547 140.505 142.821 140.505 141.022C140.505 139.222 139.79 137.496 138.517 136.224C137.244 134.951 135.517 134.237 133.717 134.237H45.2419Z" fill="#0FA958"/>
<path d="M138.934 165.42H99.8897C99.3424 165.42 98.8175 165.203 98.4306 164.816C98.0436 164.429 97.8262 163.905 97.8262 163.358C97.8262 162.811 98.0436 162.286 98.4306 161.899C98.8175 161.512 99.3424 161.295 99.8897 161.295H138.934C139.481 161.295 140.006 161.512 140.393 161.899C140.78 162.286 140.998 162.811 140.998 163.358C140.998 163.905 140.78 164.429 140.393 164.816C140.006 165.203 139.481 165.42 138.934 165.42Z" fill="#0FA958"/>
</g>
<defs>
<clipPath id="clip0_50_46">
<rect width="231" height="225" fill="white"/>
</clipPath>
</defs>
</svg>
